{
 "cells": [
  {
   "cell_type": "code",
   "execution_count": 1,
   "id": "8961d609",
   "metadata": {},
   "outputs": [
    {
     "name": "stderr",
     "output_type": "stream",
     "text": [
      "ffmpeg version 8.1 Copyright (c) 2000-2026 the FFmpeg developers\n",
      "  built with Apple clang version 21.0.0 (clang-2100.0.123.102)\n",
      "  configuration: --prefix=/opt/homebrew/Cellar/ffmpeg/8.1_1 --enable-shared --enable-pthreads --enable-version3 --cc=clang --host-cflags= --host-ldflags= --enable-ffplay --enable-gpl --enable-libsvtav1 --enable-libopus --enable-libx264 --enable-libmp3lame --enable-libdav1d --enable-libvmaf --enable-libvpx --enable-libx265 --enable-openssl --enable-videotoolbox --enable-audiotoolbox --enable-neon\n",
      "  libavutil      60. 26.100 / 60. 26.100\n",
      "  libavcodec     62. 28.100 / 62. 28.100\n",
      "  libavformat    62. 12.100 / 62. 12.100\n",
      "  libavdevice    62.  3.100 / 62.  3.100\n",
      "  libavfilter    11. 14.100 / 11. 14.100\n",
      "  libswscale      9.  5.100 /  9.  5.100\n",
      "  libswresample   6.  3.100 /  6.  3.100\n",
      "Input #0, mov,mp4,m4a,3gp,3g2,mj2, from 'Comp Vision video.mp4':\n",
      "  Metadata:\n",
      "    major_brand     : mp42\n",
      "    minor_version   : 1\n",
      "    compatible_brands: isommp41mp42\n",
      "    creation_time   : 2026-04-24T05:47:30.000000Z\n",
      "  Duration: 00:09:58.56, start: 0.000000, bitrate: 3765 kb/s\n",
      "  Stream #0:0[0x1](eng): Audio: aac (LC) (mp4a / 0x6134706D), 48000 Hz, stereo, fltp, 87 kb/s (default)\n",
      "    Metadata:\n",
      "      creation_time   : 2026-04-24T05:47:30.000000Z\n",
      "      handler_name    : Core Media Audio\n",
      "  Stream #0:1[0x2](und): Video: h264 (High) (avc1 / 0x31637661), yuv420p(tv, bt709, progressive), 1280x720, 3672 kb/s, SAR 1:1 DAR 16:9, 29.97 fps, 29.97 tbr, 30k tbn (default)\n",
      "    Metadata:\n",
      "      creation_time   : 2026-04-24T05:47:30.000000Z\n",
      "      handler_name    : Core Media Video\n",
      "Stream mapping:\n",
      "  Stream #0:1 -> #0:0 (h264 (native) -> h264 (libx264))\n",
      "  Stream #0:0 -> #0:1 (aac (native) -> aac (native))\n",
      "Press [q] to stop, [?] for help\n",
      "[libx264 @ 0x8fb041180] using SAR=1/1\n",
      "[libx264 @ 0x8fb041180] using cpu capabilities: ARMv8 NEON DotProd I8MM\n",
      "[libx264 @ 0x8fb041180] profile High, level 3.1, 4:2:0, 8-bit\n",
      "[libx264 @ 0x8fb041180] 264 - core 165 r3222 b35605a - H.264/MPEG-4 AVC codec - Copyleft 2003-2025 - http://www.videolan.org/x264.html - options: cabac=1 ref=1 deblock=1:0:0 analyse=0x3:0x113 me=hex subme=2 psy=1 psy_rd=1.00:0.00 mixed_ref=0 me_range=16 chroma_me=1 trellis=0 8x8dct=1 cqm=0 deadzone=21,11 fast_pskip=1 chroma_qp_offset=0 threads=15 lookahead_threads=5 sliced_threads=0 nr=0 decimate=1 interlaced=0 bluray_compat=0 constrained_intra=0 bframes=3 b_pyramid=2 b_adapt=1 b_bias=0 direct=1 weightb=1 open_gop=0 weightp=1 keyint=250 keyint_min=25 scenecut=40 intra_refresh=0 rc_lookahead=10 rc=crf mbtree=1 crf=28.0 qcomp=0.60 qpmin=0 qpmax=69 qpstep=4 ip_ratio=1.40 aq=1:1.00\n",
      "Output #0, mp4, to 'Group-121_Video.mp4':\n",
      "  Metadata:\n",
      "    major_brand     : mp42\n",
      "    minor_version   : 1\n",
      "    compatible_brands: isommp41mp42\n",
      "    encoder         : Lavf62.12.100\n",
      "  Stream #0:0(und): Video: h264 (avc1 / 0x31637661), yuv420p(tv, bt709, progressive), 1280x720 [SAR 1:1 DAR 16:9], q=2-31, 30 fps, 15360 tbn (default)\n",
      "    Metadata:\n",
      "      encoder         : Lavc62.28.100 libx264\n",
      "      creation_time   : 2026-04-24T05:47:30.000000Z\n",
      "      handler_name    : Core Media Video\n",
      "    Side data:\n",
      "      CPB properties: bitrate max/min/avg: 0/0/0 buffer size: 0 vbv_delay: N/A\n",
      "  Stream #0:1(eng): Audio: aac (LC) (mp4a / 0x6134706D), 48000 Hz, stereo, fltp, 128 kb/s (default)\n",
      "    Metadata:\n",
      "      encoder         : Lavc62.28.100 aac\n",
      "      creation_time   : 2026-04-24T05:47:30.000000Z\n",
      "      handler_name    : Core Media Audio\n",
      "frame=17579 fps=1057 q=34.0 size=   16128KiB time=00:09:45.90 bitrate= 225.5kbits/s speed=35.2x elapsed=0:00:16.63    \r"
     ]
    },
    {
     "name": "stdout",
     "output_type": "stream",
     "text": [
      "compressed video saved as: Group-121_Video.mp4\n"
     ]
    },
    {
     "name": "stderr",
     "output_type": "stream",
     "text": [
      "[mp4 @ 0x8fa8bc280] Starting second pass: moving the moov atom to the beginning of the file\n",
      "[out#0/mp4 @ 0x8fb044300] video:9339KiB audio:7476KiB subtitle:0KiB other streams:0KiB global headers:0KiB muxing overhead: 3.827947%\n",
      "frame=17957 fps=1057 q=-1.0 Lsize=   17458KiB time=00:09:58.50 bitrate= 239.0kbits/s speed=35.2x elapsed=0:00:16.98    \n",
      "[libx264 @ 0x8fb041180] frame I:81    Avg QP:21.30  size: 55965\n",
      "[libx264 @ 0x8fb041180] frame P:4832  Avg QP:28.28  size:   719\n",
      "[libx264 @ 0x8fb041180] frame B:13044 Avg QP:29.95  size:   119\n",
      "[libx264 @ 0x8fb041180] consecutive B-frames:  2.4%  1.7%  1.6% 94.3%\n",
      "[libx264 @ 0x8fb041180] mb I  I16..4: 57.3%  5.5% 37.3%\n",
      "[libx264 @ 0x8fb041180] mb P  I16..4:  1.6%  0.3%  0.2%  P16..4:  0.8%  0.4%  0.2%  0.0%  0.0%    skip:96.5%\n",
      "[libx264 @ 0x8fb041180] mb B  I16..4:  0.1%  0.0%  0.0%  B16..8:  0.3%  0.1%  0.0%  direct: 0.1%  skip:99.4%  L0:41.4% L1:52.8% BI: 5.8%\n",
      "[libx264 @ 0x8fb041180] 8x8 transform intra:12.5% inter:20.3%\n",
      "[libx264 @ 0x8fb041180] coded y,uvDC,uvAC intra: 27.6% 11.3% 6.7% inter: 0.1% 0.1% 0.0%\n",
      "[libx264 @ 0x8fb041180] i16 v,h,dc,p: 61% 37%  2%  1%\n",
      "[libx264 @ 0x8fb041180] i8 v,h,dc,ddl,ddr,vr,hd,vl,hu: 13% 51% 21%  2%  3%  2%  3%  2%  3%\n",
      "[libx264 @ 0x8fb041180] i4 v,h,dc,ddl,ddr,vr,hd,vl,hu: 29% 28% 17%  2%  7%  4%  5%  3%  5%\n",
      "[libx264 @ 0x8fb041180] i8c dc,h,v,p: 85%  9%  5%  1%\n",
      "[libx264 @ 0x8fb041180] Weighted P-Frames: Y:0.0% UV:0.0%\n",
      "[libx264 @ 0x8fb041180] kb/s:127.80\n",
      "[aac @ 0x8fb1e4380] Qavg: 13888.609\n"
     ]
    }
   ],
   "source": [
    "import subprocess\n",
    "from pathlib import Path\n",
    "\n",
    "# -----------------------------\n",
    "# settings\n",
    "# -----------------------------\n",
    "input_video = \"Comp Vision video.mp4\"\n",
    "output_video = \"Group-121_Video.mp4\"\n",
    "\n",
    "# lower CRF = better quality/larger file\n",
    "# higher CRF = lower quality/smaller file\n",
    "# good range: 23 to 32\n",
    "quality = 28\n",
    "\n",
    "# -----------------------------\n",
    "# compress video\n",
    "# similar idea to HandBrake \"Very Fast 720p30\"\n",
    "# -----------------------------\n",
    "cmd = [\n",
    "    \"ffmpeg\",\n",
    "    \"-i\", input_video,\n",
    "\n",
    "    # resize to 720p max height, keep aspect ratio\n",
    "    \"-vf\", \"scale=-2:720,fps=30\",\n",
    "\n",
    "    # video compression\n",
    "    \"-c:v\", \"libx264\",\n",
    "    \"-preset\", \"veryfast\",\n",
    "    \"-crf\", str(quality),\n",
    "\n",
    "    # audio compression\n",
    "    \"-c:a\", \"aac\",\n",
    "    \"-b:a\", \"128k\",\n",
    "\n",
    "    # better mp4 compatibility\n",
    "    \"-movflags\", \"+faststart\",\n",
    "\n",
    "    output_video\n",
    "]\n",
    "\n",
    "subprocess.run(cmd, check=True)\n",
    "\n",
    "print(\"compressed video saved as:\", output_video)"
   ]
  }
 ],
 "metadata": {
  "kernelspec": {
   "display_name": "ews-mac",
   "language": "python",
   "name": "python3"
  },
  "language_info": {
   "codemirror_mode": {
    "name": "ipython",
    "version": 3
   },
   "file_extension": ".py",
   "mimetype": "text/x-python",
   "name": "python",
   "nbconvert_exporter": "python",
   "pygments_lexer": "ipython3",
   "version": "3.10.20"
  }
 },
 "nbformat": 4,
 "nbformat_minor": 5
}
